<svg viewBox="0 0 14 8" fill="none" xmlns="http://www.w3.org/2000/svg"><path d="M13.93 7.22a7.27 7.27 0 0 0-1.44-1.7l-.02-.01v-.01h-.02l-.6-.6c-.14-.2-.18-.4-.1-.6.07-.15.28-.47.66-.96l.48-.62c.84-1.12 1.2-1.83 1.09-2.14l-.04-.08c-.03-.04-.1-.08-.23-.12a1.15 1.15 0 0 0-.47-.01l-2.1.01a.27.27 0 0 0-.14 0l-.1.03-.03.01-.03.03a.32.32 0 0 0-.08.07 3.77 3.77 0 0 1-2 3.3c-.09.06-.15.09-.2.08a5.36 5.36 0 0 1-.12-.03.49.49 0 0 1-.16-.18.8.8 0 0 1-.09-.28 3.14 3.14 0 0 1-.02-.65 10.86 10.86 0 0 0 .02-.9 104.37 104.37 0 0 1 .02-.92c0-.15 0-.26-.02-.34a1.14 1.14 0 0 0-.08-.23.4.4 0 0 0-.15-.18.84.84 0 0 0-.24-.1 4.84 4.84 0 0 0-.98-.09c-.9 0-1.49.05-1.75.18-.1.05-.2.12-.27.22-.1.1-.1.16-.04.17.3.04.5.15.62.31l.04.1a3.4 3.4 0 0 1 .17.87 5.7 5.7 0 0 1-.17 1.84l-.08.16a.13.13 0 0 1-.04.03.55.55 0 0 1-.2.04c-.07 0-.15-.03-.25-.1s-.2-.16-.3-.28a8.73 8.73 0 0 1-.76-1.26l-.12-.21a18.23 18.23 0 0 1-.63-1.35.48.48 0 0 0-.18-.24l-.03-.02a.77.77 0 0 0-.28-.1h-2c-.2 0-.35.05-.42.14l-.03.05a.24.24 0 0 0-.02.12c0 .05.01.11.04.2a24.1 24.1 0 0 0 2.62 4.62 16.15 16.15 0 0 0 .72.88l.18.18a8.77 8.77 0 0 0 1.26.9 4.07 4.07 0 0 0 2.03.5h.84c.17 0 .3-.06.39-.15l.03-.04a.74.74 0 0 0 .08-.34c0-.2 0-.4.04-.56.04-.17.08-.3.13-.38a.93.93 0 0 1 .28-.32.48.48 0 0 1 .06-.03c.11-.04.25 0 .4.12.17.11.31.25.45.42.14.17.3.36.5.57.2.2.37.36.51.46l.15.1c.1.05.22.1.38.15.15.05.29.06.4.04l1.87-.03c.19 0 .33-.03.43-.1.1-.05.16-.12.18-.2a.57.57 0 0 0 0-.24.92.92 0 0 0-.04-.2Z" fill="#2D383F"/></svg>